<?xml version='1.0' encoding='utf-8'?>
<svg xmlns="http://www.w3.org/2000/svg" viewBox="0 0 125 212.5"> <g transform="matrix(.042585 0 0 .042585 -580.51 -22.383)"> <path d="m15154 831 27 26 235 1178 26 27v262l-156 497v105l26-26 183-262 104-105 78-52 105-53 156-26h26l26 26 105 27h26l130 131 53 78 26 105v78l-26 184-26 106-105 209-104 131-105 105-208 314-27 79h27v-26l52-53 52-26h130l53 52 26 79-26 52-131 131-78 27h-78l-53-27-78-78-26-79v-131l26-105 157-419v-131l-26-78-53-53-78-27h-52l-78 27-105 105-52 157-78 367v131l52 288 209 472 52 52 26 52v27l235 235 104 53h235l26-26v-53l-26-26v-52l26-53 79-78h130l52 26 52 52 26 105v26l-26 53-104 104-157 79-156 26h-131l-26-26-156-52h-53l-208-158-131-131v-26l-52-78-26 26-131 498-27 26h-26l-26-26-26-53-26-209-52-158-52-104-79 78v26l-52 53-130 105-235 104-287 79h-52l-105-26-104-53-79-52-26-26-52-105v-131l26-52 79-79 52-26h78l104 105v131l-26 52-26 26 52 53h131l183-53 52-52 52-26h26l104-79 105-105 156-235 79-210 52-262v-340l-52-184-79-183-78-131-52-53-78-53h-105l-52 26-26 54-26 78v79l235 550v183l-26 26-26 53v26l-79 79-52 26h-78l-52-26-105-105v-105l26-52 53-53h130l26 26h52l-104-183-365-498-53-104-104-316v-52l52-183 26-53 79-78 78-53 52-26 78-26h53l156 26 52 26 105 79 156 157 52 79v26l53 78 52 53v-79l-26-26-105-419-26-236 26-79 261-1152v-26l26-26z"/> <g stroke="#000"> <path d="m15154 831 27 26 235 1178 26 27v262l-156 497v105l26-26 183-262 104-105 78-52 105-53 156-26h26l26 26 105 27h26l130 131 53 78 26 105v78l-26 184-26 106-105 209-104 131-105 105-208 314-27 79h27v-26l52-53 52-26h130l53 52 26 79-26 52-131 131-78 27h-78l-53-27-78-78-26-79v-131l26-105 157-419v-131l-26-78-53-53-78-27h-52l-78 27-105 105-52 157-78 367v131l52 288 209 472 52 52 26 52v27l235 235 104 53h235l26-26v-53l-26-26v-52l26-53 79-78h130l52 26 52 52 26 105v26l-26 53-104 104-157 79-156 26h-131l-26-26-156-52h-53l-208-158-131-131v-26l-52-78-26 26-131 498-27 26h-26l-26-26-26-53-26-209-52-158-52-104-79 78v26l-52 53-130 105-235 104-287 79h-52l-105-26-104-53-79-52-26-26-52-105v-131l26-52 79-79 52-26h78l104 105v131l-26 52-26 26 52 53h131l183-53 52-52 52-26h26l104-79 105-105 156-235 79-210 52-262v-340l-52-184-79-183-78-131-52-53-78-53h-105l-52 26-26 54-26 78v79l235 550v183l-26 26-26 53v26l-79 79-52 26h-78l-52-26-105-105v-105l26-52 53-53h130l26 26h52l-104-183-365-498-53-104-104-316v-52l52-183 26-53 79-78 78-53 52-26 78-26h53l156 26 52 26 105 79 156 157 52 79v26l53 78 52 53v-79l-26-26-105-419-26-236 26-79 261-1152v-26l26-26" fill="none"/> </g> </g> </svg>