<svg version="1.0" xmlns="http://www.w3.org/2000/svg"
 width="1342.000000pt" height="528.000000pt" viewBox="0 0 1342.000000 528.000000"
 preserveAspectRatio="xMidYMid meet">
<g transform="translate(0.000000,528.000000) scale(0.100000,-0.100000)"
fill="#ffffff" stroke="none">
<path d="M2360 5159 c-112 -12 -283 -44 -367 -70 -38 -12 -70 -21 -73 -22 -26
-1 -272 -98 -350 -137 -115 -58 -348 -198 -410 -247 -181 -141 -356 -308 -440
-419 -24 -32 -62 -79 -82 -103 -21 -24 -38 -50 -38 -57 0 -7 -4 -14 -8 -16
-12 -4 -72 -95 -72 -107 0 -6 -4 -11 -9 -11 -9 0 -21 -21 -92 -161 -145 -286
-224 -526 -267 -819 -41 -274 -23 -663 43 -925 14 -55 28 -111 30 -125 3 -14
8 -32 12 -40 3 -8 8 -26 10 -39 23 -140 295 -642 418 -773 14 -15 25 -30 25
-34 0 -19 191 -220 300 -315 387 -337 846 -546 1355 -616 123 -17 343 -18
4340 -18 2316 0 4250 4 4299 8 480 42 928 220 1341 532 171 128 471 458 551
605 10 19 22 37 25 40 17 13 99 158 150 265 136 283 216 590 239 915 11 146
10 218 -5 365 -2 22 -6 72 -10 110 -35 429 -299 1025 -595 1350 -15 17 -49 54
-76 84 -117 130 -393 354 -533 433 -20 12 -58 34 -86 50 -247 143 -613 263
-902 293 -158 17 -8560 20 -8723 4z m538 -103 c23 -8 42 -13 42 -10 0 2 12 -2
28 -10 69 -35 236 -68 379 -73 180 -7 256 5 442 68 79 27 148 49 153 49 16 0
-14 -44 -55 -82 -157 -144 -422 -174 -737 -82 -30 9 -63 18 -72 19 -62 12
-318 133 -352 166 -10 9 98 -19 172 -45z m1648 8 c120 -61 128 -197 20 -308
-43 -44 -126 -102 -126 -89 0 5 -4 3 -8 -2 -10 -15 -121 -59 -242 -96 -102
-32 -112 -33 -310 -35 -121 -2 -225 1 -255 8 -93 20 -280 67 -350 88 -38 12
-80 23 -91 26 -12 2 -35 11 -50 19 -16 8 -34 15 -40 15 -23 0 -292 135 -369
185 -150 98 -279 160 -383 184 -34 8 -32 9 28 10 122 1 220 -28 440 -132 500
-236 922 -314 1248 -232 217 56 340 152 297 234 -18 36 -59 47 -112 31 -55
-17 -87 -10 -91 18 -14 96 253 147 394 76z m4636 9 c67 -21 100 -49 96 -83 -3
-27 -34 -31 -123 -15 -32 5 -45 3 -62 -11 -86 -73 23 -185 239 -248 323 -94
794 -19 1236 195 256 125 347 155 477 157 90 2 90 2 37 -13 -94 -26 -184 -66
-281 -124 -142 -85 -166 -98 -302 -167 -70 -35 -133 -64 -141 -64 -8 0 -18 -4
-23 -9 -15 -14 -315 -105 -420 -127 -203 -43 -485 -45 -630 -4 -44 12 -90 24
-101 26 -95 18 -296 135 -343 200 -150 207 52 377 341 287z m1498 6 c-110 -68
-331 -157 -430 -175 -14 -3 -33 -7 -42 -10 -249 -75 -552 -16 -691 135 -53 57
-42 59 84 15 230 -80 216 -78 429 -78 218 0 240 4 505 88 161 50 198 57 145
25z m-5372 5 c72 -9 66 -16 -36 -40 -48 -12 -121 -36 -163 -53 -76 -31 -102
-46 -269 -151 -77 -48 -83 -50 -65 -24 141 217 297 296 533 268z m934 -9 c216
-38 317 -124 326 -276 7 -126 -43 -203 -165 -249 -162 -62 -327 -9 -340 111
-7 58 3 64 58 39 174 -78 265 97 104 199 -96 61 -254 64 -478 7 -202 -51 -433
-124 -552 -176 -59 -26 -363 -137 -492 -181 -139 -47 -228 -66 -374 -79 -197
-17 -209 -13 -64 25 173 44 393 127 650 245 33 15 116 54 185 85 142 65 193
88 200 90 3 1 18 7 33 13 16 7 31 12 35 12 4 0 36 11 72 24 64 24 183 61 230
72 92 21 175 36 240 41 41 3 77 7 79 9 10 9 183 2 253 -11z m1373 -10 c132
-24 137 -25 200 -46 33 -10 69 -21 80 -23 40 -8 211 -68 263 -92 29 -13 55
-24 59 -24 3 0 33 -13 67 -30 399 -192 386 -187 658 -284 135 -49 252 -83 327
-96 82 -14 -144 -8 -244 6 -133 20 -304 67 -435 121 -14 6 -61 23 -105 38 -44
15 -93 33 -110 41 -220 99 -682 239 -870 263 -186 25 -332 -21 -371 -116 -41
-96 62 -179 160 -128 51 27 76 20 76 -20 0 -125 -153 -189 -320 -135 -38 12
-70 25 -70 29 0 3 -16 17 -36 30 -143 98 -102 337 73 420 26 13 55 27 64 31
14 7 41 13 159 34 47 9 295 -4 375 -19z m810 -24 c77 -37 255 -208 255 -244 0
-6 -91 39 -108 53 -99 85 -335 190 -464 207 -87 11 -19 24 111 21 131 -3 138
-4 206 -37z m-6152 -72 c260 -51 354 -277 181 -439 -121 -113 -338 -76 -361
63 -7 47 10 55 74 33 98 -33 168 2 168 84 0 175 -366 168 -611 -10 -133 -97
-232 -234 -304 -417 -36 -92 -100 -306 -114 -379 -7 -41 -50 -203 -81 -309
-14 -49 -47 -160 -72 -245 -63 -214 -129 -359 -201 -435 -46 -50 -112 -97
-126 -92 -8 3 -16 -2 -19 -13 -3 -12 -21 -23 -48 -31 -118 -34 -236 -12 -329
62 -254 201 -147 674 154 674 87 0 123 -15 157 -63 68 -96 30 -213 -77 -236
-39 -9 -78 20 -94 72 -18 56 -25 58 -66 20 -151 -143 90 -372 284 -268 190
101 282 362 282 802 0 330 84 633 218 783 48 55 152 143 176 149 16 4 15 1 -7
-22 -155 -165 -249 -445 -248 -741 0 -200 7 -196 56 34 107 499 308 781 640
899 109 38 250 48 368 25z m9222 -14 c170 -46 359 -192 472 -365 90 -137 175
-374 218 -604 17 -97 22 -109 36 -101 21 14 2 335 -26 435 -8 30 -17 64 -20
76 -16 71 -86 213 -121 249 -9 9 -16 27 -16 40 0 14 -4 23 -8 20 -8 -5 -76 63
-69 69 15 15 209 -156 236 -208 9 -17 19 -33 22 -36 43 -35 124 -335 135 -501
3 -46 8 -165 11 -264 12 -457 149 -728 380 -752 178 -19 309 220 171 311 -34
22 -34 22 -47 -26 -10 -40 -40 -77 -63 -79 -122 -12 -198 120 -126 220 50 68
82 83 171 78 246 -12 375 -309 245 -565 -29 -57 -82 -112 -108 -112 -11 0 -16
-5 -13 -10 4 -6 -19 -22 -52 -38 -102 -47 -266 -29 -344 39 -69 59 -87 78
-120 119 -30 38 -97 166 -129 245 -39 100 -173 569 -206 725 -78 368 -222 638
-418 785 -237 178 -611 180 -611 4 0 -82 78 -119 172 -83 60 23 77 14 70 -37
-18 -136 -269 -166 -373 -45 -153 178 -49 388 211 429 58 10 261 -2 320 -18z
m-5674 -290 c47 -33 77 -77 89 -130 8 -34 8 -34 -45 0 -151 96 -297 98 -568 5
-111 -38 -213 -60 -267 -59 -31 0 206 117 313 154 223 77 396 88 478 30z
m2186 -4 c57 -17 132 -44 168 -61 83 -38 181 -80 225 -96 34 -13 32 -13 -48
-14 -48 0 -96 6 -115 13 -18 8 -34 14 -37 15 -3 0 -18 6 -34 12 -16 6 -36 12
-45 13 -9 1 -20 5 -26 9 -41 25 -179 52 -270 52 -117 1 -184 -17 -257 -70 -51
-36 -54 -33 -37 31 37 132 231 171 476 96z m-6951 -193 c-25 -44 -70 -170 -80
-223 -49 -287 -184 -475 -407 -569 -108 -45 -109 -31 -4 64 52 47 94 90 94 96
1 7 7 14 15 17 13 5 108 136 140 192 9 17 20 37 26 45 16 26 110 230 110 239
0 21 55 106 98 154 35 37 37 34 8 -15z m11387 -71 c30 -45 64 -109 77 -142 83
-215 179 -353 364 -523 43 -40 76 -75 73 -78 -8 -9 -87 16 -87 27 0 6 -5 7
-10 4 -10 -6 -113 47 -136 70 -6 6 -30 27 -53 46 -100 81 -139 162 -216 444
-20 72 -47 154 -60 184 -42 92 -26 81 48 -32z m-10465 53 c62 -35 73 -69 20
-61 -57 8 -186 -45 -260 -107 -88 -74 -267 -311 -268 -357 -1 -20 -59 -130
-60 -112 -1 64 63 272 117 382 116 233 303 338 451 255z m9710 3 c94 -43 174
-149 266 -355 18 -40 79 -288 73 -294 -2 -3 -22 30 -43 73 -76 151 -86 168
-95 171 -5 2 -9 8 -9 14 0 17 -97 143 -143 185 -98 90 -215 142 -321 143 -30
0 -30 0 -1 30 55 57 186 74 273 33z m-908 -146 c14 -3 45 -11 70 -16 25 -5 56
-12 69 -15 38 -9 152 -46 186 -61 17 -7 64 -27 106 -44 42 -17 108 -52 148
-76 40 -25 77 -45 81 -45 5 0 10 -4 12 -8 2 -5 30 -27 63 -49 242 -164 477
-484 594 -808 35 -97 50 -156 90 -350 15 -72 7 -373 -13 -470 -9 -44 -18 -87
-20 -95 -1 -8 -13 -49 -25 -90 -171 -564 -620 -1004 -1196 -1173 -68 -20 -105
-29 -135 -33 -14 -1 -36 -6 -50 -11 -41 -13 -7949 -16 -8056 -3 -74 9 -207 38
-294 64 -66 20 -327 139 -340 155 -3 3 -44 32 -92 63 -94 62 -107 72 -171 131
-23 21 -52 46 -65 54 -13 9 -21 22 -18 29 3 8 2 13 -2 13 -21 -4 -34 6 -73 58
-24 32 -56 69 -70 83 -14 14 -34 40 -44 58 -11 18 -23 32 -27 32 -4 0 -8 4 -8
10 0 5 -17 36 -37 67 -45 69 -92 161 -115 223 -10 25 -23 59 -29 75 -7 17 -13
35 -15 40 -1 6 -12 44 -24 85 -12 41 -25 95 -30 120 -5 25 -12 56 -15 70 -4
14 -9 102 -12 195 -18 571 258 1118 727 1436 36 24 67 46 70 49 18 18 160 88
280 137 156 65 292 95 465 103 198 9 7983 6 8015 -3z m-9978 -1836 c170 -86
259 -234 372 -616 75 -253 79 -269 83 -290 1 -11 9 -38 17 -60 8 -22 22 -76
32 -120 9 -44 19 -84 23 -90 3 -5 7 -21 9 -35 13 -101 133 -395 203 -497 193
-282 626 -436 772 -275 36 40 31 142 -8 142 -7 0 -15 5 -17 12 -6 17 -62 14
-107 -7 -52 -23 -71 -15 -71 29 0 25 9 45 30 70 137 155 415 9 402 -212 -2
-33 -40 -132 -51 -132 -3 0 -21 -14 -40 -32 -99 -93 -375 -106 -566 -25 -129
54 -276 169 -360 282 -17 22 -33 42 -36 45 -8 6 -57 92 -98 170 -25 48 -55
125 -67 170 -2 8 -14 58 -28 110 -13 52 -34 141 -47 198 -12 56 -25 102 -29
102 -4 0 -11 -40 -14 -89 -20 -251 79 -589 224 -768 28 -35 48 -63 45 -63 -14
0 -104 73 -99 81 3 5 -1 6 -9 3 -21 -8 -116 113 -165 211 -49 97 -80 194 -98
300 -2 17 -9 53 -15 80 -5 28 -12 109 -15 180 -11 319 -15 374 -29 447 -54
283 -185 454 -356 466 -127 9 -224 -71 -224 -185 0 -57 3 -65 34 -97 45 -46
59 -45 67 4 18 111 171 99 204 -17 48 -165 -133 -267 -308 -173 -161 85 -224
328 -134 513 90 184 297 257 474 168z m12133 5 c334 -153 257 -724 -98 -719
-112 2 -177 60 -177 159 0 148 180 200 214 62 8 -34 25 -35 59 -4 39 36 49
140 18 178 -6 7 -20 25 -31 39 -71 95 -242 90 -347 -11 -151 -144 -211 -367
-212 -785 -2 -400 -122 -705 -341 -864 -82 -60 -87 -57 -22 13 91 101 182 305
206 461 26 170 35 375 18 402 -5 7 -22 -49 -40 -132 -44 -193 -117 -417 -149
-456 -7 -8 -13 -20 -13 -26 0 -15 -48 -99 -65 -113 -8 -7 -15 -19 -15 -26 0
-8 -4 -14 -9 -14 -5 0 -12 -8 -15 -18 -9 -27 -132 -151 -196 -198 -83 -60
-161 -95 -290 -128 -52 -14 -262 -17 -300 -4 -8 3 -28 8 -45 13 -117 31 -185
119 -185 240 0 84 16 122 79 183 113 111 323 85 347 -43 13 -72 -10 -89 -73
-55 -105 56 -203 -29 -144 -126 67 -110 339 -96 547 27 219 129 362 388 478
865 26 104 54 214 62 244 9 30 25 87 36 125 119 420 214 596 379 701 84 53
221 57 324 10z m45 -849 c0 -1 -24 -20 -52 -41 -127 -94 -268 -273 -358 -456
-121 -247 -151 -299 -197 -348 -20 -21 -16 -7 18 59 17 34 50 132 75 218 57
200 75 251 116 318 51 86 201 210 219 182 8 -12 13 -6 10 13 0 4 23 14 52 24
28 9 55 19 59 23 7 6 58 13 58 8z m-12370 -47 c123 -54 228 -158 283 -280 15
-35 40 -115 93 -304 15 -54 40 -125 56 -158 36 -76 35 -79 -7 -28 -19 23 -76
126 -126 228 -135 279 -254 440 -414 561 -30 22 -30 22 10 16 22 -4 69 -19
105 -35z m853 -208 c87 -187 249 -383 365 -441 49 -24 147 -53 170 -50 4 1 18
1 31 0 24 -1 24 -1 1 -25 -95 -102 -295 -76 -393 51 -12 15 -24 30 -27 33 -13
12 -78 129 -98 180 -13 30 -27 64 -32 75 -21 47 -50 146 -64 219 -18 90 -19
100 -3 66 6 -14 28 -62 50 -108z m10557 30 c-65 -250 -155 -431 -261 -527
-110 -99 -262 -111 -343 -26 -27 29 -27 29 41 36 187 19 368 188 507 473 23
48 46 94 51 102 15 25 18 -8 5 -58z m-7685 -608 c111 -10 354 -75 480 -129 95
-40 369 -145 540 -206 439 -156 685 -185 855 -102 30 15 59 26 63 25 5 -1 6 2
3 7 -3 5 1 22 9 37 52 101 -53 193 -149 131 -76 -50 -106 34 -40 113 21 24 32
30 51 26 13 -4 23 -3 22 1 -5 30 4 33 90 33 296 0 412 -308 177 -469 -120 -83
-451 -115 -676 -67 -47 10 -89 19 -95 21 -24 5 -107 28 -185 53 -47 14 -87 27
-90 27 -3 1 -18 7 -33 13 -16 7 -33 12 -38 12 -5 0 -17 4 -27 9 -9 5 -39 19
-67 32 -27 12 -102 47 -165 79 -138 69 -379 181 -394 184 -6 1 -20 7 -31 13
-50 28 -292 114 -357 127 -7 2 -20 6 -28 9 -8 3 -44 13 -80 21 -65 15 -65 15
20 10 47 -2 112 -7 145 -10z m4885 -10 c-110 -29 -299 -92 -317 -107 -7 -5
-13 -6 -13 -3 0 4 -12 1 -27 -7 -16 -8 -93 -43 -173 -78 -80 -35 -197 -89
-260 -120 -246 -122 -287 -139 -490 -205 -420 -137 -832 -121 -991 39 -81 81
-100 183 -53 282 85 180 416 205 472 36 26 -74 -1 -96 -75 -60 -94 45 -184
-22 -153 -115 11 -33 73 -98 100 -105 279 -68 529 -12 1273 283 120 48 271
102 335 120 100 29 160 39 347 60 109 12 119 4 25 -20z m-3960 -68 c312 -103
459 -101 611 9 56 40 63 30 30 -40 -41 -88 -120 -134 -235 -134 -159 -2 -302
40 -568 167 -153 73 -62 71 162 -2z m3065 -2 c-144 -66 -264 -116 -324 -133
-223 -64 -405 -24 -465 103 -16 34 -23 93 -8 69 17 -26 128 -83 192 -97 122
-28 237 -15 408 46 129 46 211 67 267 67 50 1 50 1 -70 -55z m-4234 -4 c390
-70 645 -317 498 -484 -80 -92 -352 -89 -421 4 -37 51 -6 75 77 58 163 -33
144 117 -26 203 -304 153 -760 111 -1269 -119 -360 -162 -429 -184 -568 -181
-47 1 -47 1 38 28 100 33 179 68 237 104 23 15 48 28 55 29 7 2 19 10 26 18 9
10 11 11 6 1 -4 -9 -2 -12 7 -9 8 3 14 10 14 16 0 56 563 287 775 318 20 3 69
11 110 19 116 21 307 18 441 -5z m5660 11 c35 -5 84 -13 109 -16 219 -31 572
-170 815 -320 166 -103 283 -157 410 -189 11 -3 -20 -3 -70 -1 -126 4 -187 23
-391 115 -362 165 -500 212 -738 250 -337 54 -675 -12 -776 -152 -61 -83 -23
-131 94 -121 76 6 76 6 76 -25 0 -115 -323 -145 -430 -41 -142 138 99 419 410
476 14 2 54 10 90 17 82 16 317 20 401 7z m-4782 -400 c92 -54 184 -94 264
-116 37 -10 67 -21 67 -25 0 -18 -181 -9 -265 13 -103 28 -193 108 -269 240
-27 48 -27 48 55 -13 45 -33 111 -78 148 -99z m3710 122 c-114 -189 -253 -274
-444 -272 -61 0 -161 16 -116 18 32 1 191 56 270 92 74 34 261 154 261 167 0
7 33 28 48 31 2 1 -7 -16 -19 -36z m-5019 -67 c116 -31 215 -94 264 -169 26
-39 1 -37 -111 9 -278 112 -493 114 -825 8 -196 -62 -256 -76 -220 -49 73 54
370 171 507 200 85 18 318 18 385 1z m6595 -25 c61 -18 129 -41 152 -51 24
-11 45 -20 48 -20 13 0 216 -103 221 -112 10 -16 -72 1 -181 39 -204 70 -270
84 -426 90 -182 7 -241 -3 -418 -68 -169 -62 -180 -61 -105 17 62 64 112 95
204 126 94 31 361 20 505 -21z"/>
</g>
</svg>