<svg xmlns="http://www.w3.org/2000/svg" viewBox="-282.8 -1212.8 1768.5 1768.5">
<defs>
  <clipPath id="r">
    <rect x="-282.8" y="-1212.8" width="1768.5" height="1768.5" rx="247.6"/>
  </clipPath>
</defs>
<rect x="-282.8" y="-1212.8" width="1768.5" height="1768.5" rx="247.6" fill="#0a0a0a"/>
<g clip-path="url(#r)" transform="scale(1,-1)" fill="#e8e0d0">
<path transform="translate(0,0)" d="M149 680H171Q177 678 203 676L235 673Q241 673 251.0 671.0Q261 669 266 668Q277 667 298 667L308 669Q314 667 334 669Q343 671 360 673H361L362 674Q366 674 374 676Q378 676 386 678Q318 603 308 533V517Q307 514 307 511V507Q306 506 306 503V495Q304 481 304 476V436Q304 410 309 364Q313 322 326 238L331 221V202Q330 201 330 197V193Q329 190 329 188Q328 169 317 151Q311 136 295 122Q282 116 265 110Q260 109 249.5 105.5Q239 102 234 101Q233 101 231 101Q229 100 227.0 99.5Q225 99 221 99H209L214 94Q217 93 220 88L232 76Q258 55 265 50Q284 37 304 31Q314 28 316 28Q318 28 320 28Q322 27 323 27H337Q338 27 346 29Q347 29 353 31Q354 32 356.5 33.0Q359 34 360.0 34.5Q361 35 363.0 36.5Q365 38 366.0 38.5Q367 39 369.5 41.0Q372 43 372.5 44.0Q373 45 374.5 47.0Q376 49 376.0 49.5Q376 50 379 59L382 68Q382 71 384 77Q384 79 385 82V88Q385 91 386 94V112L347 438L353 548Q367 597 405.5 637.5Q444 678 498 678L512 680L514 674Q512 673 510.0 671.5Q508 670 506.5 669.0Q505 668 503.0 666.5Q501 665 498.5 665.0Q496 665 494.0 664.0Q492 663 490 662Q475 654 465.5 646.5Q456 639 450 622Q450 621 449.0 619.5Q448 618 448 615V612Q448 610 447.0 606.5Q446 603 444 598V594Q443 589 441 579Q440 574 440 566V557Q440 554 442 548Q442 547 443 546V544Q443 543 443.5 541.5Q444 540 445 535Q445 534 446 532V529L481 264Q481 258 482 257V242Q482 241 483 239V210Q482 206 482 199V188Q481 184 481 177Q475 122 449.5 67.5Q424 13 359 -3Q356 -3 348 -5L336 -8Q332 -8 325.5 -9.0Q319 -10 316 -11H308Q302 -11 301 -12H290Q289 -11 286 -11H277Q274 -10 270 -10H264L120 35L118 33H115Q114 33 112 34H104Q103 34 101 35H99Q71 35 45 14Q27 0 19 -17V-15Q18 -14 17.0 -12.0Q16 -10 16 -8V-7Q15 -3 13.5 -0.5Q12 2 12 8Q12 41 41.0 69.0Q70 97 102 109Q105 111 112 113Q114 113 120.5 115.5Q127 118 132.0 119.0Q137 120 140 120L198 122Q198 120 200 120Q201 120 202.0 121.0Q203 122 209 124Q210 125 212.0 126.0Q214 127 215.5 128.5Q217 130 222.5 135.5Q228 141 229.5 143.5Q231 146 233 153V163Q233 166 235 174V188Q235 190 236 192V205Q235 208 235 215V225Q234 228 234 235Q218 337 151 337L143 339Q131 336 107 331Q101 329 89 326Q86 325 80.0 323.5Q74 322 70 320Q80 365 120 389Q156 411 205 411Q205 531 298 624Q296 623 291.0 620.5Q286 618 282.0 616.0Q278 614 269.0 611.5Q260 609 239 603Q221 601 211 601Q201 601 179 603Q174 604 163.0 606.0Q152 608 146.0 608.0Q140 608 130 610Q124 610 116 612Q93 606 78.5 594.0Q64 582 52 560Q54 601 81.5 636.0Q109 671 149 678Z"/><path transform="translate(561,0)" d="M494 684V682H479Q449 682 410 667Q376 653 353 626Q322 576 319 518Q318 513 318 508Q318 503 318 498Q318 491 318.5 479.5Q319 468 320 452Q323 436 325.5 413.0Q328 390 330 360Q333 343 333 316V299Q332 298 332 295V289Q310 139 190 56V59Q190 60 191 61V65Q191 66 192 67V68Q226 115 246 154Q269 199 285 252V314Q285 321 284.5 326.0Q284 331 284 337Q284 343 283.5 350.5Q283 358 282 372Q281 383 280.5 392.0Q280 401 280 408Q277 429 277 477Q277 490 278.0 503.5Q279 517 280 530Q284 546 286 564Q289 577 291.0 586.0Q293 595 295 601L357 671L353 676Q352 675 351 675Q351 675 350 674Q343 670 339 670Q313 660 300.0 654.5Q287 649 279 649Q271 648 265.5 647.5Q260 647 258 647H254Q252 647 252 648H246Q243 648 242 651L136 680H129Q127 679 121 679L106 676Q64 668 32 635Q0 603 0 562V558L2 554H4Q7 554 10 557H11Q12 557 13 558H14Q19 565 23.5 569.5Q28 574 30 578Q34 582 34 583Q34 585 36 587L47 598H49Q54 598 55 599H74Q77 598 80 598H84Q90 596 93 596L108 593Q115 593 123 588Q128 587 131.5 585.0Q135 583 143 583H145Q146 582 148 582H157Q158 581 160 581H165Q179 581 183 582Q195 583 201 585L228 594Q234 596 240.5 598.5Q247 601 254 605Q176 527 176 426V416Q176 413 177.0 408.0Q178 403 179 402V397Q179 394 180 393V390L157 388Q121 385 106 378Q82 368 68 345L74 347L85 345Q87 345 91.5 344.5Q96 344 102 343Q121 340 122 339Q140 333 167 313Q188 296 188 277V262H181Q180 262 172 264H161Q159 264 158 265H150Q133 264 122 259Q107 253 101 244Q105 244 111.0 242.5Q117 241 120 240Q126 238 130.5 236.0Q135 234 138 233Q151 228 169 213Q173 208 175.5 204.0Q178 200 180 198Q184 194 183.5 193.5Q183 193 187 182Q187 180 189 170Q189 166 190 164V159Q190 157 189.5 152.5Q189 148 188 141Q188 139 187.0 134.0Q186 129 183 123Q181 115 180.0 113.0Q179 111 177 106Q173 98 169 91L74 -4L89 -12Q102 -5 120.5 2.0Q139 9 164 17Q218 34 246 37Q257 39 266.0 39.5Q275 40 280 41Q291 42 300.0 42.5Q309 43 314 43H324Q326 42 333 42H343Q345 41 353 41Q459 26 512 -27L630 85L610 99Q610 98 608.5 96.5Q607 95 607 94Q606 93 600 85L596 81Q595 80 594.5 79.0Q594 78 593 77Q591 76 590 76Q589 76 589 76L583 72Q580 72 576.0 73.5Q572 75 572 77H570L555 89Q550 93 545.5 96.0Q541 99 539 101Q533 102 527 106Q522 108 519.0 108.5Q516 109 514 110Q506 112 500.0 114.0Q494 116 490 118Q466 124 448.0 126.0Q430 128 409 128Q403 128 394.0 127.5Q385 127 374 126Q338 119 310.5 112.5Q283 106 264 101L347 178Q386 214 405 266Q426 323 424 374L415 585Q424 646 496 651Q500 653 502.0 655.0Q504 657 506 658Q512 664 514 669Q512 676 505 677Q505 679 501.5 679.5Q498 680 494 684Z"/>
</g>
</svg>