<?xml version="1.0" encoding="UTF-8" standalone="no"?>
<!DOCTYPE svg PUBLIC "-//W3C//DTD SVG 1.1//EN" "http://www.w3.org/Graphics/SVG/1.1/DTD/svg11.dtd">
<svg width="100%" height="100%" viewBox="0 0 1280 720" version="1.1" xmlns="http://www.w3.org/2000/svg" xmlns:xlink="http://www.w3.org/1999/xlink" xml:space="preserve" xmlns:serif="http://www.serif.com/" style="fill-rule:evenodd;clip-rule:evenodd;stroke-linecap:round;stroke-linejoin:round;stroke-miterlimit:1.5;">
    <path d="M30.174,80.662C65.39,56.547 66.39,56.208 109.065,56.395C174.172,56.682 202.717,142.108 190.465,168.135C164.949,222.338 84.768,214.748 79.615,208.676" style="fill:rgb(0,255,22);fill-opacity:0;stroke:rgb(6,255,0);stroke-width:9px;"/>
    <path d="M87.992,70.268C87.992,132.921 83.659,132.272 76.601,192.29C76.332,194.582 70.723,288.113 70.206,333.73" style="fill:rgb(0,255,22);fill-opacity:0;stroke:rgb(6,255,0);stroke-width:9px;"/>
    <path d="M163.596,202.451C197.474,202.451 235.683,190.549 241.06,273.327C245.144,336.19 198.212,353.658 148.529,363.157C27.593,386.279 18.439,333.56 7.603,320.814" style="fill:rgb(0,255,22);fill-opacity:0;stroke:rgb(6,255,0);stroke-width:9px;"/>
    <path d="M229.065,134.982C227.807,148.088 232.687,148.809 222.465,178.628C223.503,169.061 217.433,159.502 236.919,142.093C245.367,134.545 245.679,135.302 256.874,134.387" style="fill:rgb(0,255,22);fill-opacity:0;stroke:rgb(6,255,0);stroke-width:9px;"/>
    <path d="M289.571,132.039C251.111,136.377 273.617,174.603 283.506,165.282C298.333,151.308 291.053,140.74 290.818,138.453" style="fill:rgb(0,255,22);fill-opacity:0;stroke:rgb(6,255,0);stroke-width:9px;"/>
    <path d="M309.191,133.555C310.165,153.822 303.822,165.069 323.377,161.082C331.829,159.359 328.774,156.436 329.365,148.037" style="fill:rgb(0,255,22);fill-opacity:0;stroke:rgb(6,255,0);stroke-width:9px;"/>
    <path d="M364.191,131.574C349.061,137.758 343.858,138.446 349.419,153.681C353.309,164.338 356.87,159.065 366.391,153.421" style="fill:rgb(0,255,22);fill-opacity:0;stroke:rgb(6,255,0);stroke-width:9px;"/>
    <path d="M369.513,125.894C369.565,131.806 370.117,194.256 364.521,199.629C353.028,210.665 348.911,192.012 348.596,190.581" style="fill:rgb(0,255,22);fill-opacity:0;stroke:rgb(6,255,0);stroke-width:9px;"/>
    <path d="M385.568,109.682C385.039,132.22 385.183,131.912 384.11,154.615C383.535,140.955 380.23,138.656 392.809,130.054C394.867,128.646 403.075,126.218 404.052,159.123" style="fill:rgb(0,255,22);fill-opacity:0;stroke:rgb(6,255,0);stroke-width:9px;"/>
    <path d="M427.469,86.592L427.469,86.731" style="fill:none;stroke:rgb(6,255,0);stroke-width:9px;"/>
    <path d="M427.469,86.731C427.469,121.716 429.495,121.68 422.911,155.854" style="fill:rgb(0,255,22);fill-opacity:0;stroke:rgb(6,255,0);stroke-width:9px;"/>
    <path d="M412.048,128.877C422.525,128.755 433.002,128.633 443.479,128.511" style="fill:rgb(0,255,22);fill-opacity:0;stroke:rgb(6,255,0);stroke-width:9px;"/>
    <path d="M515.018,97.165L515.018,180.434" style="fill:none;stroke:rgb(6,255,0);stroke-width:9px;"/>
    <path d="M503.417,137.764L521.301,137.764" style="fill:none;stroke:rgb(6,255,0);stroke-width:9px;"/>
    <path d="M539.969,139.208C538.94,141.693 517.344,163.77 541.038,161.069C542.441,160.909 571.681,135.798 537.97,140.886" style="fill:rgb(0,255,22);fill-opacity:0;stroke:rgb(6,255,0);stroke-width:9px;"/>
    <path d="M606.145,130.966C605.485,149.385 601.213,160.622 619.097,155.018C619.68,154.835 624.496,156.553 626.528,128.939C624.739,182.828 638.333,196.446 624.875,202.375C608.688,209.505 602.785,209.034 601.449,191.726" style="fill:rgb(0,255,22);fill-opacity:0;stroke:rgb(6,255,0);stroke-width:9px;"/>
    <path d="M647.366,131.181C628.999,145.456 658.882,157.083 662.746,149.66C669.744,136.217 663.521,135.266 649.061,130.604" style="fill:rgb(0,255,22);fill-opacity:0;stroke:rgb(6,255,0);stroke-width:9px;"/>
    <path d="M680.3,132.625C681.347,159.224 680.19,160.199 682.898,161.516C702.312,170.961 699.367,134.329 699.405,133.863C699.468,135.699 700.155,155.878 704.723,156.208C710.727,156.64 712.138,156.832 712.683,150.751" style="fill:rgb(0,255,22);fill-opacity:0;stroke:rgb(6,255,0);stroke-width:9px;"/>
    <path d="M768.52,77.227C767.175,118.42 763.292,117.777 760.638,158.596C770.484,157.8 775.165,162.297 775.586,152.142C776.003,142.06 780.312,138.534 770.76,136.538C765.362,135.411 762.632,133.046 762.053,132.545" style="fill:rgb(0,255,22);fill-opacity:0;stroke:rgb(6,255,0);stroke-width:9px;"/>
    <path d="M792.5,137.482C793.736,155.625 788.775,167.51 799.633,159.58C803.798,156.538 805.764,135.269 805.964,133.1C805.358,173.156 809.355,205.014 798.399,219.526C791.086,229.212 771.218,217.98 767.706,204.119" style="fill:rgb(0,255,22);fill-opacity:0;stroke:rgb(6,255,0);stroke-width:9px;"/>
    <g transform="matrix(1,0,0,1,-144,58)">
        <g transform="matrix(21.373981,0,0,21.373981,929.446651,242.209302)">
        </g>
        <text x="559.973px" y="242.209px" style="font-family:'ComicSansMS', 'Comic Sans MS', cursive;font-size:21.374px;fill:rgb(0,255,22);stroke:rgb(6,255,0);stroke-width:1px;stroke-linecap:butt;stroke-miterlimit:2;">thousands of servers in a big factory</text>
    </g>
    <g transform="matrix(1.781165,0,0,1.781165,-435.254917,-187.021957)">
        <g transform="matrix(12,0,0,12,736.971947,253.62254)">
        </g>
        <text x="657.572px" y="253.623px" style="font-family:'ComicSansMS', 'Comic Sans MS', cursive;font-size:12px;fill:rgb(0,255,22);stroke:rgb(6,255,0);stroke-width:0.56px;stroke-linecap:butt;stroke-miterlimit:2;">Career Advice</text>
    </g>
    <g transform="matrix(1.781165,0,0,1.781165,-345.254917,-252.021957)">
        <g transform="matrix(12,0,0,12,781.509056,253.62254)">
        </g>
        <text x="657.572px" y="253.623px" style="font-family:'ComicSansMS', 'Comic Sans MS', cursive;font-size:12px;fill:rgb(0,255,22);stroke:rgb(6,255,0);stroke-width:0.56px;stroke-linecap:butt;stroke-miterlimit:2;">Insane LinkedIn Posts</text>
    </g>
    <g transform="matrix(1.781165,0,0,1.781165,-234.254917,-113.021957)">
        <g transform="matrix(12,0,0,12,812.487572,253.62254)">
        </g>
        <text x="657.572px" y="253.623px" style="font-family:'ComicSansMS', 'Comic Sans MS', cursive;font-size:12px;fill:rgb(0,255,22);stroke:rgb(6,255,0);stroke-width:0.56px;stroke-linecap:butt;stroke-miterlimit:2;">internet culture 2015-2023</text>
    </g>
    <g transform="matrix(1.781165,0,0,1.781165,-113.254917,-218.021957)">
        <g transform="matrix(12,0,0,12,740.487572,253.62254)">
        </g>
        <text x="657.572px" y="253.623px" style="font-family:'ComicSansMS', 'Comic Sans MS', cursive;font-size:12px;fill:rgb(0,255,22);stroke:rgb(6,255,0);stroke-width:0.56px;stroke-linecap:butt;stroke-miterlimit:2;">counterculture</text>
    </g>
    <g transform="matrix(1.781165,0,0,1.781165,-292.254917,-307.021957)">
        <g transform="matrix(12,0,0,12,796.216088,253.62254)">
        </g>
        <text x="657.572px" y="253.623px" style="font-family:'ComicSansMS', 'Comic Sans MS', cursive;font-size:12px;fill:rgb(0,255,22);stroke:rgb(6,255,0);stroke-width:0.56px;stroke-linecap:butt;stroke-miterlimit:2;">a Corporate Environment</text>
    </g>
    <g transform="matrix(1.781165,0,0,1.781165,-322.254917,-73.021957)">
        <g transform="matrix(12,0,0,12,831.946556,253.62254)">
        </g>
        <text x="657.572px" y="253.623px" style="font-family:'ComicSansMS', 'Comic Sans MS', cursive;font-size:12px;fill:rgb(0,255,22);stroke:rgb(6,255,0);stroke-width:0.56px;stroke-linecap:butt;stroke-miterlimit:2;">the Australian cultural identity</text>
    </g>
    <g transform="matrix(1.781165,0,0,1.781165,-487.254917,-116.021957)">
        <g transform="matrix(12,0,0,12,769.954369,253.62254)">
        </g>
        <text x="657.572px" y="253.623px" style="font-family:'ComicSansMS', 'Comic Sans MS', cursive;font-size:12px;fill:rgb(0,255,22);stroke:rgb(6,255,0);stroke-width:0.56px;stroke-linecap:butt;stroke-miterlimit:2;">the english language</text>
    </g>
    <g transform="matrix(1.781165,0,0,1.781165,-133.254917,-279.021957)">
        <g transform="matrix(12,0,0,12,771.155541,253.62254)">
        </g>
        <text x="657.572px" y="253.623px" style="font-family:'ComicSansMS', 'Comic Sans MS', cursive;font-size:12px;fill:rgb(0,255,22);stroke:rgb(6,255,0);stroke-width:0.56px;stroke-linecap:butt;stroke-miterlimit:2;">Coworkers + Friends</text>
    </g>
    <g transform="matrix(1.781165,0,0,1.781165,-176.254917,-348.021957)">
        <g transform="matrix(12,0,0,12,740.241478,253.62254)">
        </g>
        <text x="657.572px" y="253.623px" style="font-family:'ComicSansMS', 'Comic Sans MS', cursive;font-size:12px;fill:rgb(0,255,22);stroke:rgb(6,255,0);stroke-width:0.56px;stroke-linecap:butt;stroke-miterlimit:2;">Uni Professors</text>
    </g>
    <g transform="matrix(1.781165,0,0,1.781165,-440.254917,-1.021957)">
        <g transform="matrix(12,0,0,12,958.725853,253.62254)">
        </g>
        <text x="657.572px" y="253.623px" style="font-family:'ComicSansMS', 'Comic Sans MS', cursive;font-size:12px;fill:rgb(0,255,22);stroke:rgb(6,255,0);stroke-width:0.56px;stroke-linecap:butt;stroke-miterlimit:2;">Eastern Europe, immigration, and multiple generations</text>
    </g>
    <g transform="matrix(1.781165,0,0,1.781165,-74.254917,-405.021957)">
        <g transform="matrix(12,0,0,12,748.233666,253.62254)">
        </g>
        <text x="657.572px" y="253.623px" style="font-family:'ComicSansMS', 'Comic Sans MS', cursive;font-size:12px;fill:rgb(0,255,22);stroke:rgb(6,255,0);stroke-width:0.56px;stroke-linecap:butt;stroke-miterlimit:2;">white monster™</text>
    </g>
    <g transform="matrix(1.781165,0,0,1.781165,-111.254917,-38.021957)">
        <g transform="matrix(12,0,0,12,762.249291,253.62254)">
        </g>
        <text x="657.572px" y="253.623px" style="font-family:'ComicSansMS', 'Comic Sans MS', cursive;font-size:12px;fill:rgb(0,255,22);stroke:rgb(6,255,0);stroke-width:0.56px;stroke-linecap:butt;stroke-miterlimit:2;">supportive parents</text>
    </g>
    <g transform="matrix(1.781165,0,0,1.781165,-224.254917,-159.021957)">
        <g transform="matrix(12,0,0,12,789.471947,253.62254)">
        </g>
        <text x="657.572px" y="253.623px" style="font-family:'ComicSansMS', 'Comic Sans MS', cursive;font-size:12px;fill:rgb(0,255,22);stroke:rgb(6,255,0);stroke-width:0.56px;stroke-linecap:butt;stroke-miterlimit:2;">Ari Aster&apos;s Midsommar</text>
    </g>
    <g transform="matrix(1.781165,0,0,1.781165,-419.254917,-391.021957)">
        <g transform="matrix(12,0,0,12,843.061791,253.62254)">
        </g>
        <text x="657.572px" y="253.623px" style="font-family:'ComicSansMS', 'Comic Sans MS', cursive;font-size:12px;fill:rgb(0,255,22);stroke:rgb(6,255,0);stroke-width:0.56px;stroke-linecap:butt;stroke-miterlimit:2;">Senior Devs + Software Coaches</text>
    </g>
    <g transform="matrix(1.781165,0,0,1.781165,-270.254917,40.978043)">
        <g transform="matrix(12,0,0,12,715.737572,253.62254)">
        </g>
        <text x="657.572px" y="253.623px" style="font-family:'ComicSansMS', 'Comic Sans MS', cursive;font-size:12px;fill:rgb(0,255,22);stroke:rgb(6,255,0);stroke-width:0.56px;stroke-linecap:butt;stroke-miterlimit:2;">logic pro™</text>
    </g>
    <g transform="matrix(1,0,0,1,-86,3)">
        <g transform="matrix(21.373981,0,0,21.373981,752.273141,372.661002)">
        </g>
        <text x="587.867px" y="372.661px" style="font-family:'ComicSansMS', 'Comic Sans MS', cursive;font-size:21.374px;fill:rgb(0,255,22);stroke:rgb(6,255,0);stroke-width:1px;stroke-linecap:butt;stroke-miterlimit:2;">Vercel and Node</text>
    </g>
    <g transform="matrix(1,0,0,1,202,-27)">
        <g transform="matrix(21.373981,0,0,21.373981,1017.690833,560.974955)">
        </g>
        <text x="748.283px" y="560.975px" style="font-family:'ComicSansMS', 'Comic Sans MS', cursive;font-size:21.374px;fill:rgb(0,255,22);stroke:rgb(6,255,0);stroke-width:1px;stroke-linecap:butt;stroke-miterlimit:2;">JS into AST into Bytecode</text>
    </g>
    <g transform="matrix(1,0,0,1,31,-419)">
        <g transform="matrix(21.373981,0,0,21.373981,901.385054,528.045617)">
        </g>
        <text x="771.972px" y="528.046px" style="font-family:'ComicSansMS', 'Comic Sans MS', cursive;font-size:21.374px;fill:rgb(0,255,22);stroke:rgb(6,255,0);stroke-width:1px;stroke-linecap:butt;stroke-miterlimit:2;">Brat™ Green</text>
    </g>
    <g transform="matrix(1,0,0,1,-386,189)">
        <g transform="matrix(21.373981,0,0,21.373981,1355.180541,232.759392)">
        </g>
        <text x="930.644px" y="232.759px" style="font-family:'ComicSansMS-Bold', 'Comic Sans MS', cursive;font-weight:700;font-size:21.374px;fill:rgb(0,255,29);">TinaCMS and the open source community</text>
    </g>
    <g transform="matrix(1,0,0,1,-1,11)">
        <g transform="matrix(21.373981,0,0,21.373981,1038.715931,241.091234)">
        </g>
        <text x="908.677px" y="241.091px" style="font-family:'ComicSansMS-Bold', 'Comic Sans MS', cursive;font-weight:700;font-size:21.374px;fill:rgb(0,255,29);">AI Research</text>
    </g>
</svg>
