<?xml version="1.0" encoding="UTF-8" standalone="no"?>
<!DOCTYPE svg PUBLIC "-//W3C//DTD SVG 1.1//EN" "http://www.w3.org/Graphics/SVG/1.1/DTD/svg11.dtd">
<svg width="100%" height="100%" viewBox="0 0 1280 720" version="1.1" xmlns="http://www.w3.org/2000/svg" xmlns:xlink="http://www.w3.org/1999/xlink" xml:space="preserve" xmlns:serif="http://www.serif.com/" style="fill-rule:evenodd;clip-rule:evenodd;stroke-linecap:round;stroke-linejoin:round;stroke-miterlimit:1.5;">
    <path d="M671.619,157.281C654.297,158.222 606.224,160.835 471.623,241.1C407.724,279.205 368.781,332.377 361.729,342.006C360.793,329.724 359.858,317.443 358.922,305.161C360.15,316.149 361.378,327.136 362.606,338.124C378.132,333.964 377.523,330.237 409.191,331.664" style="fill:white;fill-opacity:0;stroke:rgb(255,0,0);stroke-width:9.5px;"/>
    <path d="M703.301,327.509C588.86,327.509 552.093,324.991 499.155,337.16C425.314,354.133 420.83,362.393 415.444,367.507C429.223,350.593 430.449,351.762 438.327,331.556C436.065,335.901 435.064,335.413 423.957,369.312C430.37,370.81 431.14,369.118 447.343,381.351" style="fill:white;fill-opacity:0;stroke:rgb(255,0,0);stroke-width:9.5px;"/>
    <path d="M789.481,374.334C787.52,383.848 785.46,393.843 745.367,487.469" style="fill:white;stroke:rgb(255,0,0);stroke-width:9.5px;"/>
    <path d="M738.43,527.352L738.292,527.352" style="fill:none;stroke:rgb(255,0,0);stroke-width:9.5px;"/>
    <path d="M865.318,407.066C861.181,413.153 826.547,464.117 815.783,484.584" style="fill:white;stroke:rgb(255,0,0);stroke-width:9.5px;"/>
    <path d="M802.63,521.86L802.768,521.717" style="fill:none;stroke:rgb(255,0,0);stroke-width:9.5px;"/>
    <path d="M954.982,427.853C926.868,449.56 911.8,485.267 904.052,498.457" style="fill:white;stroke:rgb(255,0,0);stroke-width:9.5px;"/>
    <path d="M881.038,536.53C882.28,533.911 883.371,537.179 881.176,539.043" style="fill:white;stroke:rgb(255,0,0);stroke-width:9.5px;"/>
    <path d="M149.7,196.802L104.822,196.802C62.09,276.75 156.329,356.873 181.069,264.155" style="fill:white;fill-opacity:0;stroke:rgb(255,0,0);stroke-width:9.5px;"/>
    <path d="M188.81,174.861C197.677,172.089 226.382,157.624 240.909,140.065C237.483,148.383 234.081,156.642 218.112,250.18C250.574,230.649 250.072,230.803 280.519,207.594" style="fill:white;fill-opacity:0;stroke:rgb(255,0,0);stroke-width:9.5px;"/>
    <path d="M303.81,137.665C311.059,136.182 311.348,135.578 311.843,127.876C312.308,120.626 327.408,88.964 328.977,85.676C275.326,88.07 281.694,156.745 306.784,161.328C351.618,169.518 365.597,137.967 379.633,119.445" style="fill:white;fill-opacity:0;stroke:rgb(255,0,0);stroke-width:9.5px;"/>
    <path d="M442.679,59.199C427.209,62.399 409.46,55.309 407.867,96.194C406.048,142.842 450.118,137.209 467.441,137.636C468.66,135.568 475.404,124.129 483.627,112.37" style="fill:white;fill-opacity:0;stroke:rgb(255,0,0);stroke-width:9.5px;"/>
    <path d="M516.646,41.467C526.818,59.946 540.769,96.449 546.382,118.643C534.405,58.445 558.438,66.796 560.908,66.547C588.143,63.802 592.287,68.143 600.456,106.829" style="fill:white;fill-opacity:0;stroke:rgb(255,0,0);stroke-width:9.5px;"/>
    <path d="M733.019,61.373C731.748,96.373 728.707,95.44 720.774,129.566" style="fill:white;stroke:rgb(255,0,0);stroke-width:9.5px;"/>
    <path d="M733.229,37.021C740.13,35.795 734.349,39.488 733.922,40.394" style="fill:white;stroke:rgb(255,0,0);stroke-width:9.5px;"/>
    <path d="M771.19,26.011C771.19,63.628 772.002,63.482 763.529,100.036C758.145,123.258 758.49,135.232 756.096,141.167" style="fill:white;stroke:rgb(255,0,0);stroke-width:9.5px;"/>
    <path d="M751.288,71.051L796.538,71.051" style="fill:none;stroke:rgb(255,0,0);stroke-width:9.5px;"/>
    <path d="M913.855,113.864C880.764,114.236 855.068,104.869 856.892,178.699C857.053,185.228 874.773,201.915 911.279,176.19C927.657,164.648 922.344,127.76 907.451,125.13" style="fill:white;fill-opacity:0;stroke:rgb(255,0,0);stroke-width:9.5px;"/>
    <path d="M966.673,145.496C964.164,170.684 937.216,215.726 962.174,227.755C1002.555,247.218 1000.427,223.115 1027.804,165.818C1015.482,195.622 1009.431,220.899 1009.119,223.708C1006.729,245.233 1013.688,243.36 1021.275,245.657" style="fill:white;fill-opacity:0;stroke:rgb(255,0,0);stroke-width:9.5px;"/>
    <path d="M1091.449,158.998C1086.52,166.458 1000.626,296.44 1072.965,269.226" style="fill:white;fill-opacity:0;stroke:rgb(255,0,0);stroke-width:9.5px;"/>
    <path d="M1054.177,171.614C1059.087,174.582 1099.521,199.014 1113.667,211.664" style="fill:white;stroke:rgb(255,0,0);stroke-width:9.5px;"/>
    <path d="M1189.217,578.98C1238.047,576.786 1264.179,491.51 1241.735,464.508C1199.704,413.941 1073.186,416.464 1069.852,515.174C1068.82,545.76 1059.19,560.271 1109.768,576.312C1109.622,580.506 1108.529,611.959 1106.611,628.663C1100.449,625.697 1082.178,616.9 1034.736,582.388C1017.856,570.109 1029.064,560.864 995.58,528.648C993.446,548.524 998.387,547.574 1003.724,567.092C984.448,559.33 984.996,559.051 964.496,555.479C975.114,573.847 974.538,573.603 982.827,586.286C965.057,586.902 965.036,588.788 954.862,603.287C954.932,603.302 979.839,607.673 980.125,609.513C981.321,617.191 956.125,638.363 962.737,640.823C992.313,651.827 1003.285,628.282 1005.648,627.572C1012.62,625.477 1011.121,632.553 1090.807,659.624C1090.287,684.923 1090.03,684.589 1093.072,709.329" style="fill:white;fill-opacity:0;stroke:rgb(255,0,0);stroke-width:9.5px;"/>
    <path d="M1187.925,583.645C1187.925,648.031 1176.717,647.742 1185.751,711.713" style="fill:white;stroke:rgb(255,0,0);stroke-width:9.5px;"/>
    <path d="M1135.394,472.742C1135.713,472.475 1136.032,472.208 1136.351,471.941" style="fill:white;stroke:rgb(255,0,0);stroke-width:9.5px;"/>
    <path d="M1188.806,481.534C1189.666,478.446 1188.415,475.262 1189.763,478.099C1189.763,478.099 1189.57,481.42 1189.553,481.708" style="fill:white;stroke:rgb(255,0,0);stroke-width:9.5px;"/>
    <path d="M1098.216,508.211C1081.444,561.868 1149.508,564.622 1170.868,522.75" style="fill:white;fill-opacity:0;stroke:rgb(255,0,0);stroke-width:9.5px;"/>
    <path d="M1137.415,470.371L1137.415,469.459" style="fill:none;stroke:rgb(255,0,0);stroke-width:9.5px;"/>
    <path d="M1108.448,614.275C1098.265,613.199 1099.541,610.404 1058.292,570.796C1040.173,553.399 1037.793,535.241 1021.252,515.173C1020.863,517.548 1017.418,538.584 1016.968,544.946" style="fill:white;fill-opacity:0;stroke:rgb(255,0,0);stroke-width:9.5px;"/>
    <path d="M994.199,544.647C990.925,545.769 987.651,546.892 984.376,548.015C988.963,551.816 989.174,551.225 992.053,556.042" style="fill:white;stroke:rgb(255,0,0);stroke-width:9.5px;"/>
    <path d="M608.408,418.538C540.34,418.538 533.895,414.857 491.027,467.876C491.205,464.221 490.824,460.552 491.002,456.896C491.064,455.628 491.08,455.723 492.063,441.064C492.578,449.846 493.093,458.629 493.608,467.412C502.027,468.027 503.808,463.835 522.661,472.894" style="fill:white;fill-opacity:0;stroke:rgb(255,0,0);stroke-width:9.5px;"/>
</svg>
