<?xml version="1.0" encoding="UTF-8" standalone="no"?>
<!DOCTYPE svg PUBLIC "-//W3C//DTD SVG 1.1//EN" "http://www.w3.org/Graphics/SVG/1.1/DTD/svg11.dtd">
<svg width="100%" height="100%" viewBox="0 0 1280 720" version="1.1" xmlns="http://www.w3.org/2000/svg" xmlns:xlink="http://www.w3.org/1999/xlink" xml:space="preserve" xmlns:serif="http://www.serif.com/" style="fill-rule:evenodd;clip-rule:evenodd;stroke-linecap:round;stroke-linejoin:round;stroke-miterlimit:1.5;">
    <path d="M105.684,130.443C105.684,166.806 103.128,167.046 113.712,202.178C115.669,208.673 118.247,246.469 118.511,250.331" style="fill:rgb(235,235,235);stroke:rgb(0,56,255);stroke-width:9px;"/>
    <path d="M106.655,162.701C110.724,143.491 116.307,147.444 134.584,139.741C144.703,135.476 142.862,133.391 151.61,126.239" style="fill:rgb(0,6,255);fill-opacity:0;stroke:rgb(0,56,255);stroke-width:9px;"/>
    <path d="M165.165,184.817C175.838,182.311 199.383,186.459 209.15,156.069C212.044,147.065 202.626,152.17 198.229,143.712C192.987,133.629 138.4,170.744 159.378,205.796C160.791,208.156 211.393,249.49 247.299,197.133" style="fill:rgb(235,235,235);fill-opacity:0;stroke:rgb(0,56,255);stroke-width:9px;"/>
    <path d="M299.387,141.306C288.072,141.928 257.118,127.473 259.374,186.57C259.858,199.264 283.655,231.94 304.365,200.725C307.115,196.579 322.719,173.06 307.553,138.619C309.843,144.666 332.973,205.743 355.903,203.386" style="fill:rgb(235,235,235);fill-opacity:0;stroke:rgb(0,56,255);stroke-width:9px;"/>
    <path d="M416.574,136.507C410.924,137.515 397.293,130.244 377.5,161.556C365.455,180.612 384.796,193.737 414.03,195.716C442.527,197.644 418.168,83.23 417.561,60.371C418.652,73.355 420.824,166.162 435.872,182.737C450.727,199.099 455.716,187.273 456.36,185.747" style="fill:rgb(235,235,235);fill-opacity:0;stroke:rgb(0,56,255);stroke-width:9px;"/>
    <path d="M586.865,79.633C586.865,133.055 591.931,133.345 580.72,185.635C575.757,208.781 575.495,208.233 574.016,231.494" style="fill:rgb(235,235,235);fill-opacity:0;stroke:rgb(0,56,255);stroke-width:9px;"/>
    <path d="M565.018,162.071L627.755,162.071" style="fill:none;stroke:rgb(0,56,255);stroke-width:9px;"/>
    <path d="M654.58,110.309C651.29,177.203 639.419,174.31 620.096,238.618C632.983,209.884 644.615,184.706 665.097,176.427C666.799,206.476 667.577,206.51 658.336,234.902" style="fill:rgb(235,235,235);fill-opacity:0;stroke:rgb(0,56,255);stroke-width:9px;"/>
    <path d="M702.791,194.025C702.528,200.847 702.179,209.878 678.131,275.72" style="fill:rgb(235,235,235);stroke:rgb(0,56,255);stroke-width:9px;"/>
    <path d="M703.327,156.033L701.149,156.033" style="fill:none;stroke:rgb(0,56,255);stroke-width:9px;"/>
    <path d="M757.089,216.878C739.87,217.398 737.832,217.835 731.476,234.061C726.05,247.912 756.662,260.346 761.136,271.696C757.104,274.059 751.187,277.527 711.485,302.496C710.021,300.346 708.557,298.196 707.093,296.047" style="fill:rgb(235,235,235);fill-opacity:0;stroke:rgb(0,56,255);stroke-width:9px;"/>
    <path d="M883.994,320.407C853.183,303.863 818.731,367.698 849.038,384.553C855.321,388.047 915.548,353.484 890.787,314.034" style="fill:rgb(235,235,235);fill-opacity:0;stroke:rgb(0,56,255);stroke-width:9px;"/>
    <path d="M914.562,333.949C913.598,361.678 913.959,365.162 890.183,402.867C895.314,389.289 896.815,357.387 938.685,336.547C961.299,325.292 957.502,382.308 954.325,387.437C940.239,410.172 946.158,433.226 940.273,417.692" style="fill:rgb(235,235,235);fill-opacity:0;stroke:rgb(0,56,255);stroke-width:9px;"/>
    <path d="M980.045,390.505C980.301,390.505 1015.309,396.951 1028.256,378.962C1033.421,371.786 1034.725,367.681 1026.033,367.402C995.361,366.417 992.675,366.15 974.857,390.975C969.026,399.099 974.053,427.489 985.143,439.709C987.667,442.491 1005.502,443.907 1015.581,445.769" style="fill:rgb(235,235,235);fill-opacity:0;stroke:rgb(0,56,255);stroke-width:9px;"/>
    <path d="M917.759,90.939C917.759,126.539 910.717,165.578 942.652,211.185C994.777,285.627 1042.733,144.332 987.258,79.11C944.469,28.803 934.057,62.862 923.761,80.291" style="fill:rgb(235,235,235);fill-opacity:0;stroke:rgb(0,56,255);stroke-width:9px;"/>
    <path d="M993.493,88.354C998.787,49.639 1061.033,13.131 1075.988,115.318C1077.423,125.119 1092.34,227.045 1040.747,234.016C1029.357,235.555 997.689,203.659 1006.087,215.004" style="fill:rgb(235,235,235);fill-opacity:0;stroke:rgb(0,56,255);stroke-width:9px;"/>
    <path d="M1016.194,163.797C1017.515,124.675 1045.041,143.518 1049.191,170.103C1055.439,210.133 1045.27,224.389 1042.554,228.198" style="fill:rgb(235,235,235);fill-opacity:0;stroke:rgb(0,56,255);stroke-width:9px;"/>
    <path d="M921.445,154.566C940.708,100.264 999.267,170.836 974.852,235" style="fill:rgb(235,235,235);fill-opacity:0;stroke:rgb(0,56,255);stroke-width:9px;"/>
    <path d="M1011.758,224.468C1040.487,237.483 1037.324,289.26 1033.681,291.717C1028.963,294.9 997.284,313.375 992.536,311.404C984.134,307.917 985.154,306.193 975.836,304.817" style="fill:rgb(235,235,235);fill-opacity:0;stroke:rgb(0,56,255);stroke-width:9px;"/>
    <path d="M1063.332,317.965C1031.354,320.352 1048.479,343.447 1053.591,344.356C1085.238,349.98 1071.47,330.272 1070.845,326.422" style="fill:rgb(235,235,235);fill-opacity:0;stroke:rgb(0,56,255);stroke-width:9px;"/>
    <path d="M1096.597,418.542C1176.03,419.887 1176.038,487.228 1175.112,552.357C1174.923,565.639 1146.506,597.164 1124.365,612.379C1090.825,635.428 1018.551,642.747 1009.039,643.71C1010.799,641.256 1010.538,641.142 1030.063,612.357C1007.01,633.681 1007.728,633.792 990.798,659.678C1005.579,669.182 1005.427,668.936 1018.743,680.331" style="fill:rgb(0,6,255);fill-opacity:0;stroke:rgb(0,56,255);stroke-width:9px;"/>
</svg>
